#N canvas 3 22 794 853 10;
#X declare -lib moocow;
#X floatatom -122 109 5 0 0 0 - - -;
#X floatatom -81 109 5 0 0 0 - - -;
#X floatatom -38 108 5 0 0 0 - - -;
#X floatatom 3 111 5 0 0 0 - - -;
#X floatatom 46 112 5 0 0 0 - - -;
#X floatatom 92 112 5 0 0 0 - - -;
#X floatatom 131 113 5 0 0 0 - - -;
#X obj -15 16 SwingParser _______________________________________________
;
#X floatatom 190 113 5 0 0 0 - - -;
#X floatatom 231 113 5 0 0 0 - - -;
#X floatatom 271 114 5 0 0 0 - - -;
#X floatatom 315 115 5 0 0 0 - - -;
#X floatatom 358 116 5 0 0 0 - - -;
#X floatatom 404 116 5 0 0 0 - - -;
#X floatatom 443 117 5 0 0 0 - - -;
#X floatatom -31 217 5 0 0 0 - - -;
#X floatatom 277 211 5 0 0 0 - - -;
#X obj -31 239 change;
#X obj -31 266 sel 1;
#X obj -31 289 bng 15 250 50 0 empty empty empty 17 7 0 10 -262144
-1 -1;
#X obj 277 232 change;
#X obj 277 262 sel 1;
#X obj 277 285 bng 15 250 50 0 empty empty empty 17 7 0 10 -262144
-1 -1;
#X obj 18 268 s bang1;
#X obj 321 263 s bang2;
#X obj 139 156 s gyro1;
#X obj 162 761 sendOSC;
#X msg -31 628 send /swing1 \$1;
#X msg 338 636 send /swing2 \$1;
#X msg -73 685 send /bang1 \$1;
#X msg 309 698 send /bang2 \$1;
#X obj -73 658 r bang1;
#X obj 309 674 r bang2;
#X msg 154 539 connect localhost 9090;
#X obj -30 599 r notes1;
#X msg 50 555 send /gyro1 \$1;
#X obj 50 526 r gyro1;
#X obj 338 610 r notes2;
#X obj 340 542 r gyro2;
#X msg 341 568 send /gyro2 \$1;
#X obj 449 151 s gyro2;
#X floatatom 404 181 5 0 0 0 - - -;
#X obj 404 202 change;
#X obj 404 229 sel 1;
#X obj 404 252 bng 15 250 50 0 empty empty empty 17 7 0 10 -262144
-1 -1;
#X obj 447 225 s change2;
#X obj 422 687 r change2;
#X msg 422 711 send /change2 \$1;
#X obj -18 736 r change1;
#X msg -18 760 send /change1 \$1;
#X floatatom 92 187 5 0 0 0 - - -;
#X obj 92 208 change;
#X obj 92 235 sel 1;
#X obj 92 258 bng 15 250 50 0 empty empty empty 17 7 0 10 -262144 -1
-1;
#X obj 136 234 s change1;
#X obj 154 510 loadbang;
#X obj 120 439 SwingTunes;
#X obj -31 193 < 0;
#X obj 277 186 < 0;
#X obj 177 413 r gyro1;
#X obj 231 413 r gyro2;
#X obj 329 194 s speed2;
#X obj 17 191 s speed1;
#X obj -1 404 r speed1;
#X obj 58 406 r speed2;
#X obj 273 154 - 605;
#X obj -34 160 - 604;
#X obj 92 155 < 400;
#X obj 404 150 < 400;
#X connect 2 0 66 0;
#X connect 5 0 25 0;
#X connect 5 0 67 0;
#X connect 7 0 0 0;
#X connect 7 1 1 0;
#X connect 7 2 2 0;
#X connect 7 3 3 0;
#X connect 7 4 4 0;
#X connect 7 5 5 0;
#X connect 7 6 6 0;
#X connect 7 7 8 0;
#X connect 7 8 9 0;
#X connect 7 9 10 0;
#X connect 7 10 11 0;
#X connect 7 11 12 0;
#X connect 7 12 13 0;
#X connect 7 13 14 0;
#X connect 10 0 65 0;
#X connect 13 0 40 0;
#X connect 13 0 68 0;
#X connect 15 0 17 0;
#X connect 16 0 20 0;
#X connect 17 0 18 0;
#X connect 17 0 23 0;
#X connect 18 0 19 0;
#X connect 18 0 56 2;
#X connect 20 0 21 0;
#X connect 20 0 24 0;
#X connect 21 0 22 0;
#X connect 21 0 56 3;
#X connect 27 0 26 0;
#X connect 28 0 26 0;
#X connect 29 0 26 0;
#X connect 30 0 26 0;
#X connect 31 0 29 0;
#X connect 32 0 30 0;
#X connect 33 0 26 0;
#X connect 34 0 27 0;
#X connect 35 0 26 0;
#X connect 36 0 35 0;
#X connect 37 0 28 0;
#X connect 38 0 39 0;
#X connect 39 0 26 0;
#X connect 41 0 42 0;
#X connect 42 0 43 0;
#X connect 42 0 45 0;
#X connect 43 0 44 0;
#X connect 46 0 47 0;
#X connect 47 0 26 0;
#X connect 48 0 49 0;
#X connect 49 0 26 0;
#X connect 50 0 51 0;
#X connect 51 0 52 0;
#X connect 51 0 54 0;
#X connect 52 0 53 0;
#X connect 55 0 33 0;
#X connect 57 0 15 0;
#X connect 58 0 16 0;
#X connect 59 0 56 4;
#X connect 60 0 56 5;
#X connect 63 0 56 0;
#X connect 64 0 56 1;
#X connect 65 0 58 0;
#X connect 65 0 61 0;
#X connect 66 0 57 0;
#X connect 66 0 62 0;
#X connect 67 0 50 0;
#X connect 68 0 41 0;
