#N canvas 633 22 762 852 10;
#X obj 121 798 dac~;
#X obj 189 564 adc~;
#X obj 219 625 e_pitchshift;
#X msg 290 597 pitch \$1;
#X obj 352 625 e_pitchshift;
#X msg 421 595 pitch \$1;
#X obj 94 755 *~ 1;
#X obj 155 756 *~ 1;
#X obj 11 672 vsl 15 128 0 20 0 0 empty empty empty 0 -9 0 10 -262144
-1 -1 3900 1;
#X floatatom 31 818 5 0 0 1 master_gain - -;
#X obj 20 26 inlet;
#X obj 536 18 inlet;
#X obj 111 25 inlet;
#X obj 609 17 inlet;
#X floatatom 56 57 5 0 0 0 - - -;
#X floatatom 538 69 5 0 0 0 - - -;
#X floatatom 148 58 5 0 0 0 - - -;
#X floatatom 635 72 5 0 0 0 - - -;
#X obj 21 86 max_n 50;
#X floatatom 46 116 5 0 0 0 - - -;
#X obj 112 94 max_n 50;
#X floatatom 130 124 5 0 0 0 - - -;
#X obj 21 59 abs;
#X obj 112 63 abs;
#X obj 155 714 *~ 1;
#X obj 93 714 *~ 1;
#X obj 18 525 vsl 15 128 0 1 0 0 empty empty empty 0 -9 0 10 -262144
-1 -1 8529 1;
#X floatatom 36 474 5 0 0 0 - - -;
#X obj 14 446 smooth 0.025;
#X obj 319 16 inlet;
#X obj 387 16 inlet;
#X obj 343 47 bng 15 250 50 0 empty empty empty 17 7 0 10 -262144 -1
-1;
#X obj 404 41 bng 15 250 50 0 empty empty empty 17 7 0 10 -262144 -1
-1;
#X obj 610 43 - 417;
#X obj 52 547 + 0;
#X obj 73 514 tgl 15 0 empty empty override_speed_vol 17 7 0 10 -262144
-1 -1 0 1;
#X text 156 549 in from soundflower;
#X obj 311 65 t b b;
#X obj 311 96 timer;
#X floatatom 326 120 5 0 0 0 - - -;
#X obj 388 62 t b b;
#X obj 388 93 timer;
#X floatatom 419 121 5 0 0 0 - - -;
#X floatatom 514 275 5 0 0 0 - - -;
#X floatatom 637 260 5 0 0 0 - - -;
#X obj 509 214 / 50;
#X obj 628 203 / 50;
#X obj 514 161 f 0;
#X obj 514 139 bang;
#X obj 628 164 f 0;
#X obj 628 142 bang;
#X obj 232 180 -;
#X obj 232 152 t b f;
#X floatatom 249 203 5 0 0 0 - - -;
#X obj 279 279 bang;
#X obj 279 308 f 0;
#X floatatom 158 349 5 0 0 0 - - -;
#X obj 156 279 / 75;
#X obj 119 151 s max2;
#X obj 27 149 s max1;
#X obj 214 279 bang;
#X obj 318 279 bang;
#X floatatom 325 437 5 0 0 1 pitch2 - -;
#X floatatom 239 441 5 0 0 1 pitch1 - -;
#X obj 215 362 f;
#X obj 317 364 f;
#X obj 211 407 * -1;
#X obj 248 404 * 1;
#X obj 360 401 * -1;
#X obj 315 404 * 1;
#X obj 517 591 vsl 15 128 -24 24 0 0 empty empty empty 0 -9 0 10 -262144
-1 -1 6380 1;
#X obj 539 592 vsl 15 128 -24 24 0 0 empty empty empty 0 -9 0 10 -262144
-1 -1 6258 1;
#X obj 156 252 abs;
#X obj 290 569 smooth 0.1;
#X obj 421 566 smooth 0.1;
#X obj 234 227 moses -15;
#X obj 279 254 moses 15;
#X text 192 300 2 is faster;
#X text 315 298 1 is faster;
#X text 259 336 close enough;
#X text 59 9 speed;
#X text 353 0 bang;
#X text 573 2 gyro;
#X obj 156 306 * 4;
#X obj 13 263 +;
#X obj 12 291 / 2;
#X obj 33 231 t b f;
#X text -2 344 speed to volume;
#X text 3 208 average speed;
#X obj 14 369 moses 45;
#X obj 14 394 / 45;
#X obj 59 394 bang;
#X obj 59 419 f 1;
#X obj 425 531 +;
#X obj 457 503 t b f;
#X obj 299 535 +;
#X obj 331 507 t b f;
#X text 369 499 add gyro pitch;
#X obj 247 124 spigot 1;
#X obj 227 90 tgl 15 0 empty empty sync 17 7 0 10 -262144 -1 -1 1 1
;
#X obj 187 125 spigot 1;
#X obj 485 89 moses -5;
#X obj 530 116 moses 5;
#X obj 536 45 - 422;
#X obj 584 92 moses -5;
#X obj 629 119 moses 5;
#X obj 530 358 spigot 1;
#X obj 498 324 tgl 15 0 empty empty twist 17 7 0 10 -262144 -1 -1 1
1;
#X obj 448 359 spigot 1;
#X obj 508 246 * 12;
#X obj 629 232 * 12;
#X connect 1 0 2 0;
#X connect 1 1 4 0;
#X connect 2 0 25 0;
#X connect 3 0 2 1;
#X connect 4 0 24 0;
#X connect 5 0 4 1;
#X connect 6 0 0 0;
#X connect 7 0 0 1;
#X connect 8 0 6 1;
#X connect 8 0 7 1;
#X connect 8 0 9 0;
#X connect 10 0 14 0;
#X connect 10 0 22 0;
#X connect 11 0 103 0;
#X connect 12 0 16 0;
#X connect 12 0 23 0;
#X connect 13 0 33 0;
#X connect 18 0 19 0;
#X connect 18 0 59 0;
#X connect 18 0 84 0;
#X connect 18 0 100 0;
#X connect 20 0 21 0;
#X connect 20 0 58 0;
#X connect 20 0 86 0;
#X connect 20 0 98 0;
#X connect 22 0 18 0;
#X connect 23 0 20 0;
#X connect 24 0 7 0;
#X connect 25 0 6 0;
#X connect 28 0 26 0;
#X connect 28 0 27 0;
#X connect 28 0 34 0;
#X connect 29 0 31 0;
#X connect 29 0 37 0;
#X connect 30 0 32 0;
#X connect 30 0 40 0;
#X connect 33 0 17 0;
#X connect 33 0 104 0;
#X connect 34 0 25 1;
#X connect 34 0 24 1;
#X connect 35 0 34 1;
#X connect 37 0 38 0;
#X connect 37 1 38 1;
#X connect 38 0 39 0;
#X connect 40 0 41 0;
#X connect 40 1 41 1;
#X connect 41 0 42 0;
#X connect 45 0 109 0;
#X connect 46 0 110 0;
#X connect 47 0 45 0;
#X connect 48 0 47 0;
#X connect 49 0 46 0;
#X connect 50 0 49 0;
#X connect 51 0 53 0;
#X connect 51 0 72 0;
#X connect 51 0 75 0;
#X connect 52 0 51 0;
#X connect 52 1 51 1;
#X connect 54 0 55 0;
#X connect 55 0 63 0;
#X connect 55 0 62 0;
#X connect 57 0 83 0;
#X connect 60 0 64 0;
#X connect 61 0 65 0;
#X connect 62 0 93 0;
#X connect 63 0 95 0;
#X connect 64 0 66 0;
#X connect 64 0 67 0;
#X connect 65 0 68 0;
#X connect 65 0 69 0;
#X connect 66 0 63 0;
#X connect 67 0 62 0;
#X connect 68 0 62 0;
#X connect 69 0 63 0;
#X connect 72 0 57 0;
#X connect 73 0 3 0;
#X connect 73 0 70 0;
#X connect 74 0 5 0;
#X connect 74 0 71 0;
#X connect 75 0 60 0;
#X connect 75 1 76 0;
#X connect 76 0 54 0;
#X connect 76 1 61 0;
#X connect 83 0 56 0;
#X connect 83 0 64 1;
#X connect 83 0 65 1;
#X connect 84 0 85 0;
#X connect 85 0 89 0;
#X connect 86 0 84 0;
#X connect 86 1 84 1;
#X connect 89 0 90 0;
#X connect 89 1 91 0;
#X connect 90 0 28 0;
#X connect 91 0 92 0;
#X connect 92 0 28 0;
#X connect 93 0 74 0;
#X connect 94 0 93 0;
#X connect 94 1 93 1;
#X connect 95 0 73 0;
#X connect 96 0 95 0;
#X connect 96 1 95 1;
#X connect 98 0 52 0;
#X connect 99 0 98 1;
#X connect 99 0 100 1;
#X connect 100 0 51 0;
#X connect 101 0 45 0;
#X connect 101 1 102 0;
#X connect 102 0 48 0;
#X connect 102 1 45 0;
#X connect 103 0 15 0;
#X connect 103 0 101 0;
#X connect 104 0 46 0;
#X connect 104 1 105 0;
#X connect 105 0 50 0;
#X connect 105 1 46 0;
#X connect 106 0 94 0;
#X connect 107 0 106 1;
#X connect 107 0 108 1;
#X connect 108 0 96 0;
#X connect 109 0 43 0;
#X connect 109 0 108 0;
#X connect 110 0 44 0;
#X connect 110 0 106 0;
