#N canvas 26 22 896 844 10;
#X declare -lib moocow;
#X floatatom 127 121 5 0 0 0 - - -;
#X floatatom 168 121 5 0 0 0 - - -;
#X floatatom 211 120 5 0 0 0 - - -;
#X floatatom 252 123 5 0 0 0 - - -;
#X floatatom 295 124 5 0 0 0 - - -;
#X floatatom 341 124 5 0 0 0 - - -;
#X floatatom 380 125 5 0 0 0 - - -;
#X obj 160 166 bng 15 250 50 0 empty empty still 17 7 0 10 -262144
-1 -1;
#X obj 234 28 SwingParser _______________________________________________
;
#X floatatom 439 125 5 0 0 0 - - -;
#X floatatom 480 125 5 0 0 0 - - -;
#X floatatom 520 126 5 0 0 0 - - -;
#X floatatom 564 127 5 0 0 0 - - -;
#X floatatom 607 128 5 0 0 0 - - -;
#X floatatom 653 128 5 0 0 0 - - -;
#X floatatom 692 129 5 0 0 0 - - -;
#X floatatom 222 223 5 0 0 0 - - -;
#X obj 189 231 -;
#X floatatom 230 269 5 0 0 0 - - -;
#N canvas 780 36 626 690 PianoPhase 1;
#X obj 81 524 loadbang;
#X msg 81 561 \; pianoPhrase 0 64 66 71 73 74 66 64 73 71 66 74 73
;
#X obj 148 525 table pianoPhrase;
#X obj 306 126 metro 124;
#X obj 306 157 counter 0 11;
#X floatatom 330 189 5 0 0 0 - - -;
#X obj 314 290 tabread pianoPhrase;
#X obj 338 438 makenote 100 125;
#X obj 340 485 noteout 2;
#X floatatom 348 319 5 0 0 0 - - -;
#X obj -28 110 counter 0 11;
#X floatatom 19 138 5 0 0 0 - - -;
#X obj -28 316 tabread pianoPhrase;
#X obj 18 442 makenote 100 125;
#X floatatom 2 343 5 0 0 0 - - -;
#X obj 20 489 noteout 1;
#X obj -28 79 metro 125;
#X obj -26 -32 inlet;
#X obj 297 -33 inlet;
#X obj 12 384 + 0;
#X obj 324 364 + 0;
#X obj 276 321 t b f;
#X floatatom 363 392 5 0 0 0 - - -;
#X floatatom 33 410 5 0 0 0 - - -;
#X obj 181 -30 inlet;
#X obj -28 21 t b f;
#X obj 304 71 t b f;
#X text -10 -56 swing 1;
#X text 187 -55 swing 2;
#X text 289 -58 transpose;
#X obj 26 -31 inlet;
#X obj 223 -31 inlet;
#X obj 228 -3 s vel2;
#X obj 29 0 s vel1;
#X obj 78 398 r vel1;
#X obj 409 394 r vel2;
#X obj 23 194 s notes1;
#X obj 355 240 s notes2;
#X obj 163 493 bendout 1;
#X obj 472 490 bendout 2;
#X obj 165 371 r gyro1;
#X obj 165 400 - 418;
#X obj 164 426 abs;
#X floatatom 189 462 5 0 0 0 - - -;
#X connect 0 0 1 0;
#X connect 3 0 4 0;
#X connect 4 0 5 0;
#X connect 4 0 6 0;
#X connect 5 0 37 0;
#X connect 6 0 9 0;
#X connect 6 0 20 0;
#X connect 7 0 8 0;
#X connect 7 1 8 1;
#X connect 10 0 11 0;
#X connect 10 0 12 0;
#X connect 11 0 36 0;
#X connect 12 0 14 0;
#X connect 12 0 19 0;
#X connect 13 0 15 0;
#X connect 13 1 15 1;
#X connect 16 0 10 0;
#X connect 17 0 25 0;
#X connect 18 0 21 0;
#X connect 19 0 13 0;
#X connect 19 0 23 0;
#X connect 20 0 7 0;
#X connect 20 0 22 0;
#X connect 21 0 19 0;
#X connect 21 0 20 0;
#X connect 21 1 19 1;
#X connect 21 1 20 1;
#X connect 24 0 26 0;
#X connect 25 0 16 0;
#X connect 25 1 16 1;
#X connect 26 0 3 0;
#X connect 26 1 3 1;
#X connect 30 0 33 0;
#X connect 31 0 32 0;
#X connect 34 0 13 1;
#X connect 35 0 7 1;
#X connect 40 0 41 0;
#X connect 41 0 42 0;
#X connect 42 0 38 0;
#X connect 42 0 43 0;
#X restore 639 525 pd PianoPhase;
#X floatatom 722 484 5 0 0 1 transpose - -;
#X msg 711 439 -2;
#X msg 779 439 2;
#X msg 742 439 0;
#X msg 813 439 5;
#X msg 680 437 -5;
#X floatatom 190 366 5 0 0 0 - - -;
#X obj 470 170 bng 15 250 50 0 empty empty still 17 7 0 10 -262144
-1 -1;
#X floatatom 531 227 5 0 0 0 - - -;
#X obj 499 235 -;
#X floatatom 540 273 5 0 0 0 - - -;
#X floatatom 497 373 5 0 0 0 - - -;
#X floatatom 293 351 5 0 0 0 - - -;
#X floatatom 582 373 5 0 0 0 - - -;
#X obj 189 316 SwingTempoVelocity;
#X obj 516 196 f 606;
#X obj 206 192 f 610;
#X floatatom 294 194 5 0 0 0 - - -;
#X obj 294 170 < 605;
#X floatatom 601 195 5 0 0 0 - - -;
#X obj 294 216 change;
#X obj 294 243 sel 1;
#X obj 294 266 bng 15 250 50 0 empty empty empty 17 7 0 10 -262144
-1 -1;
#X obj 601 216 change;
#X obj 601 246 sel 1;
#X obj 601 269 bng 15 250 50 0 empty empty empty 17 7 0 10 -262144
-1 -1;
#X obj 327 269 s bang1;
#X obj 628 274 s bang2;
#X obj 378 180 s gyro1;
#X obj 259 764 sendOSC;
#X msg 66 631 send /swing1 \$1;
#X msg 435 639 send /swing2 \$1;
#X msg 24 688 send /bang1 \$1;
#X msg 406 701 send /bang2 \$1;
#X obj 24 661 r bang1;
#X obj 406 677 r bang2;
#X msg 251 542 connect localhost 9090;
#X obj 67 602 r notes1;
#X msg 147 558 send /gyro1 \$1;
#X obj 147 529 r gyro1;
#X obj 435 613 r notes2;
#X obj 437 545 r gyro2;
#X msg 438 571 send /gyro2 \$1;
#X obj 696 189 s gyro2;
#X floatatom 443 230 5 0 0 0 - - -;
#X obj 443 251 change;
#X obj 443 278 sel 1;
#X obj 443 301 bng 15 250 50 0 empty empty empty 17 7 0 10 -262144
-1 -1;
#X obj 388 324 s change2;
#X obj 519 690 r change2;
#X msg 519 714 send /change2 \$1;
#X obj 79 739 r change1;
#X msg 79 763 send /change1 \$1;
#X obj 443 208 > 530;
#X floatatom 115 255 5 0 0 0 - - -;
#X obj 115 276 change;
#X obj 115 303 sel 1;
#X obj 115 326 bng 15 250 50 0 empty empty empty 17 7 0 10 -262144
-1 -1;
#X obj 115 233 > 530;
#X obj 60 349 s change1;
#X obj 601 170 < 603;
#X obj 679 377 random 5;
#X obj 679 403 select 0 1 2 3 4;
#X obj 251 513 loadbang;
#X obj 679 350 sel 1;
#X obj 679 321 r change1;
#X obj 499 320 SwingTempoVelocity;
#X connect 1 0 78 0;
#X connect 2 0 17 0;
#X connect 2 0 36 1;
#X connect 2 0 38 0;
#X connect 5 0 48 0;
#X connect 7 0 36 0;
#X connect 8 0 0 0;
#X connect 8 1 1 0;
#X connect 8 2 2 0;
#X connect 8 3 3 0;
#X connect 8 4 4 0;
#X connect 8 5 5 0;
#X connect 8 6 6 0;
#X connect 8 7 9 0;
#X connect 8 8 10 0;
#X connect 8 9 11 0;
#X connect 8 10 12 0;
#X connect 8 11 13 0;
#X connect 8 12 14 0;
#X connect 8 13 15 0;
#X connect 10 0 73 0;
#X connect 11 0 29 0;
#X connect 11 0 35 1;
#X connect 11 0 80 0;
#X connect 14 0 63 0;
#X connect 17 0 18 0;
#X connect 17 0 34 0;
#X connect 20 0 19 4;
#X connect 21 0 20 0;
#X connect 22 0 20 0;
#X connect 23 0 20 0;
#X connect 24 0 20 0;
#X connect 25 0 20 0;
#X connect 27 0 35 0;
#X connect 29 0 30 0;
#X connect 29 0 86 0;
#X connect 34 0 19 0;
#X connect 34 0 26 0;
#X connect 34 1 19 1;
#X connect 34 1 32 0;
#X connect 35 0 28 0;
#X connect 35 0 29 1;
#X connect 36 0 16 0;
#X connect 36 0 17 1;
#X connect 37 0 40 0;
#X connect 38 0 37 0;
#X connect 39 0 43 0;
#X connect 40 0 41 0;
#X connect 40 0 46 0;
#X connect 41 0 42 0;
#X connect 43 0 44 0;
#X connect 43 0 47 0;
#X connect 44 0 45 0;
#X connect 50 0 49 0;
#X connect 51 0 49 0;
#X connect 52 0 49 0;
#X connect 53 0 49 0;
#X connect 54 0 52 0;
#X connect 55 0 53 0;
#X connect 56 0 49 0;
#X connect 57 0 50 0;
#X connect 58 0 49 0;
#X connect 59 0 58 0;
#X connect 60 0 51 0;
#X connect 61 0 62 0;
#X connect 62 0 49 0;
#X connect 64 0 65 0;
#X connect 65 0 66 0;
#X connect 65 0 68 0;
#X connect 66 0 67 0;
#X connect 69 0 70 0;
#X connect 70 0 49 0;
#X connect 71 0 72 0;
#X connect 72 0 49 0;
#X connect 73 0 64 0;
#X connect 74 0 75 0;
#X connect 75 0 76 0;
#X connect 75 0 79 0;
#X connect 76 0 77 0;
#X connect 78 0 74 0;
#X connect 80 0 39 0;
#X connect 81 0 82 0;
#X connect 82 0 25 0;
#X connect 82 1 21 0;
#X connect 82 2 23 0;
#X connect 82 3 22 0;
#X connect 82 4 24 0;
#X connect 83 0 56 0;
#X connect 84 0 81 0;
#X connect 85 0 84 0;
#X connect 86 0 31 0;
#X connect 86 0 19 2;
#X connect 86 1 19 3;
#X connect 86 1 33 0;
