#N canvas 133 104 1293 673 10;
#X declare -lib moocow;
#X obj 37 184 sel 10 13;
#X msg 37 81 close;
#X obj 37 233 zl group 12;
#X obj 38 264 route 76 82;
#X obj 40 329 route 65;
#X obj 41 353 route 88 89 90;
#X obj 35 407 bytes2any;
#X floatatom 47 438 5 0 0 0 - - -;
#X obj 103 406 bytes2any;
#X floatatom 111 434 5 0 0 0 - - -;
#X obj 168 406 bytes2any;
#X floatatom 182 433 5 0 0 0 - - -;
#X text 95 330 Accelerometer;
#X text 22 433 X;
#X text 90 432 Y;
#X text 156 433 Z;
#X obj 342 321 route 71;
#X obj 339 444 bytes2any;
#X floatatom 348 470 5 0 0 0 - - -;
#X obj 407 437 bytes2any;
#X floatatom 420 469 5 0 0 0 - - -;
#X text 326 470 X;
#X obj 339 400 route 65 66;
#X obj 507 443 bytes2any;
#X floatatom 525 474 5 0 0 0 - - -;
#X obj 575 442 bytes2any;
#X floatatom 593 473 5 0 0 0 - - -;
#X obj 507 399 route 65 66;
#X text 391 470 X2;
#X text 512 474 Z;
#X text 576 473 Z2;
#X obj 340 358 route 88 90;
#X text 401 321 Gyro;
#X obj 744 349 route 65;
#X obj 743 399 route 88 89 90;
#X obj 737 453 bytes2any;
#X floatatom 754 487 5 0 0 0 - - -;
#X obj 805 452 bytes2any;
#X floatatom 822 486 5 0 0 0 - - -;
#X obj 870 452 bytes2any;
#X floatatom 887 487 5 0 0 0 - - -;
#X text 799 350 Accelerometer;
#X text 809 486 Y;
#X text 875 487 Z;
#X obj 973 335 route 71;
#X obj 970 458 bytes2any;
#X floatatom 994 493 5 0 0 0 - - -;
#X obj 1038 457 bytes2any;
#X floatatom 1062 492 5 0 0 0 - - -;
#X text 981 493 X;
#X obj 970 414 route 65 66;
#X obj 1138 457 bytes2any;
#X floatatom 1157 489 5 0 0 0 - - -;
#X obj 1206 456 bytes2any;
#X floatatom 1225 488 5 0 0 0 - - -;
#X obj 1138 413 route 65 66;
#X text 1046 493 X2;
#X text 1144 489 Z;
#X text 1208 488 Z2;
#X obj 971 372 route 88 90;
#X text 1032 335 Gyro;
#X text 897 266 Swing2;
#X text 229 255 Swing1;
#X msg 151 83 devices;
#X obj 411 78 import moocow;
#X obj 27 516 outlet;
#X obj 95 514 outlet;
#X obj 159 514 outlet;
#X obj 341 526 outlet;
#X obj 405 527 outlet;
#X obj 503 520 outlet;
#X obj 570 519 outlet;
#X obj 738 518 outlet;
#X obj 797 524 outlet;
#X obj 863 526 outlet;
#X obj 974 522 outlet;
#X obj 1033 527 outlet;
#X obj 1139 531 outlet;
#X obj 1207 532 outlet;
#X msg 86 81 open 3;
#X obj 38 137 comport 18 57600;
#X msg 83 30 open 18;
#X connect 0 0 2 0;
#X connect 0 2 2 0;
#X connect 1 0 80 0;
#X connect 2 0 3 0;
#X connect 3 0 4 0;
#X connect 3 0 16 0;
#X connect 3 1 33 0;
#X connect 3 1 44 0;
#X connect 4 0 5 0;
#X connect 5 0 6 0;
#X connect 5 1 8 0;
#X connect 5 2 10 0;
#X connect 6 0 7 0;
#X connect 6 0 65 0;
#X connect 8 0 9 0;
#X connect 8 0 66 0;
#X connect 10 0 11 0;
#X connect 10 0 67 0;
#X connect 16 0 31 0;
#X connect 17 0 18 0;
#X connect 17 0 68 0;
#X connect 19 0 20 0;
#X connect 19 0 69 0;
#X connect 22 0 17 0;
#X connect 22 1 19 0;
#X connect 23 0 24 0;
#X connect 23 0 70 0;
#X connect 25 0 26 0;
#X connect 25 0 71 0;
#X connect 27 0 23 0;
#X connect 27 1 25 0;
#X connect 31 0 22 0;
#X connect 31 1 27 0;
#X connect 33 0 34 0;
#X connect 34 0 35 0;
#X connect 34 1 37 0;
#X connect 34 2 39 0;
#X connect 35 0 36 0;
#X connect 35 0 72 0;
#X connect 37 0 38 0;
#X connect 37 0 73 0;
#X connect 39 0 40 0;
#X connect 39 0 74 0;
#X connect 44 0 59 0;
#X connect 45 0 46 0;
#X connect 45 0 75 0;
#X connect 47 0 48 0;
#X connect 47 0 76 0;
#X connect 50 0 45 0;
#X connect 50 1 47 0;
#X connect 51 0 52 0;
#X connect 51 0 77 0;
#X connect 53 0 54 0;
#X connect 53 0 78 0;
#X connect 55 0 51 0;
#X connect 55 1 53 0;
#X connect 59 0 50 0;
#X connect 59 1 55 0;
#X connect 63 0 80 0;
#X connect 79 0 80 0;
#X connect 80 0 0 0;
#X connect 81 0 80 0;
